<svg width="323" height="350" viewBox="0 0 323 350" fill="none" xmlns="http://www.w3.org/2000/svg">
<path fill-rule="evenodd" clip-rule="evenodd" d="M187.374 38.4685C192.232 32.7665 195.52 25.7786 194.97 17.9485C193.387 -4.61223 161.982 0.350851 155.873 11.7376C149.764 23.1243 150.49 52.0077 158.385 54.0428C161.534 54.8544 168.241 52.8663 175.068 48.7515L170.783 79.0663H196.084L187.374 38.4685Z" fill="#FFDBA5"/>
<path fill-rule="evenodd" clip-rule="evenodd" d="M179.502 26.2152C180.329 25.6466 181.318 25.3012 182.379 25.3012C185.291 25.3012 187.651 27.8971 187.651 30.5723C187.651 33.3553 186.336 35.5071 184.46 36.42C185.462 38.3797 186.47 39.8019 187.651 40.0602C192.207 39.5993 198.193 28.2746 198.193 18.9759C198.193 8.79798 190.094 0 175 0C161.433 0 156.289 5.5939 156.024 10.5422C161.838 12.1399 171.996 12.7552 186.596 12.6506V13.7048L173.946 14.759L171.837 21.0843C175.192 20.8339 177.589 23.1348 179.502 26.2152Z" fill="#1C1C29"/>
<path d="M206.627 350C161.795 350 125.452 315.309 125.452 272.515C125.452 229.721 161.795 195.03 206.627 195.03C251.458 195.03 287.801 229.721 287.801 272.515C287.801 315.309 251.458 350 206.627 350Z" fill="#626A70"/>
<path fill-rule="evenodd" clip-rule="evenodd" d="M53.2282 338.045C66.7357 308.149 76.5041 282.117 80.4251 268.383C87.1389 244.866 92.2463 224.172 93.5372 216.444C96.6154 198.016 69.8574 196.943 66.3206 206.101C60.9674 219.963 51.622 265.507 40.3928 334.3L53.2282 338.045ZM209.907 244.224C197.514 239.325 154.114 223.995 133.182 219.658C127.167 218.412 121.337 217.254 115.856 216.208C99.5645 213.097 91.1238 242.488 106.815 244.747C145.891 250.37 201.289 256.178 206.03 256.83C212.675 257.743 217.696 247.302 209.907 244.224Z" fill="#FFDBA5"/>
<path fill-rule="evenodd" clip-rule="evenodd" d="M105.857 208.12L172.892 173.995V166.566H164.919C100.066 183.092 66.9266 193.682 65.4999 198.338C65.4846 198.388 65.4705 198.438 65.4577 198.489C65.4251 198.531 65.393 198.574 65.3615 198.618C52.509 216.294 44.8117 302.589 42.2853 309.05L66.9135 312.724C76.3345 277.79 106.476 253.453 105.675 211.612C105.891 210.385 105.946 209.221 105.857 208.12Z" fill="#1B2264"/>
<path fill-rule="evenodd" clip-rule="evenodd" d="M167.322 228.386C173.455 227.158 179.104 226.062 183.937 225.215C215.156 219.739 224.26 203.028 218.877 166.566H161.357C151.961 169.265 103.13 189.743 77.7942 200.635C61.0258 207.843 66.3118 233.83 75.8077 240.593C75.8593 241.008 76.0302 241.29 76.3345 241.416C127.416 262.587 167.826 251.479 181.325 255.028L187.569 235.331L167.322 228.386Z" fill="#2A3174"/>
<path fill-rule="evenodd" clip-rule="evenodd" d="M205.67 241.093C209.016 241.413 211.392 241.916 212.797 242.601C214.506 243.434 216.86 244.935 219.861 247.103C218.894 249.085 210.205 266.899 193.795 300.545C188.527 299.695 186.439 297.684 187.532 294.513C188.625 291.343 189.507 288.696 190.178 286.573L191.219 256.333C191.239 255.751 191.727 255.295 192.309 255.315C192.319 255.316 192.329 255.316 192.339 255.317L196.991 255.609C199.634 253.469 201.378 251.534 202.223 249.802C202.909 248.395 203.288 246.175 203.361 243.141L203.361 243.141C203.389 241.977 204.355 241.056 205.519 241.084C205.569 241.085 205.62 241.088 205.67 241.093Z" fill="#5C4127"/>
<path fill-rule="evenodd" clip-rule="evenodd" d="M59.3755 332.502C60.5549 335.65 61.1446 338.006 61.1446 339.569C61.1446 341.47 60.8279 344.244 60.1945 347.892C57.9891 347.892 38.1692 347.892 0.734745 347.892C-0.810402 342.783 0.0815468 340.026 3.41059 339.618C6.73964 339.211 9.50513 338.843 11.7071 338.515L39.3434 326.195C39.8752 325.958 40.4984 326.196 40.7355 326.728C40.7396 326.737 40.7435 326.746 40.7473 326.756L42.5237 331.065C45.6056 332.503 48.1099 333.222 50.0366 333.222C51.6021 333.222 53.764 332.59 56.5224 331.325L56.5224 331.325C57.5809 330.84 58.8324 331.305 59.3177 332.363C59.3386 332.409 59.3579 332.455 59.3755 332.502Z" fill="#5C4127"/>
<path fill-rule="evenodd" clip-rule="evenodd" d="M109.755 145.621L76.1273 170.314C67.0068 172.775 59.3869 175.837 53.2676 179.5C51.8221 180.817 50.0751 183.485 56.0699 183.024C62.0646 182.563 68.391 182.347 69.2181 184.392C70.0453 186.437 66.4176 188.882 68.0896 191.641C69.2043 193.48 74.4706 188.868 83.8885 177.805L117.189 163.997L109.755 145.621ZM261.932 135.335L243.366 138.697C264.914 181.457 276.455 204.066 277.989 206.523C281.441 212.053 277.957 222.017 276.642 227.273C284.281 229.193 281.458 217.592 291.122 220.173C299.944 222.528 307.357 228.307 315.752 220.834C316.784 219.916 317.578 217.001 314.142 215.44C305.579 211.549 292.955 204.323 290.935 201.567C288.181 197.81 278.514 175.733 261.932 135.335Z" fill="#FFDBA5"/>
<path fill-rule="evenodd" clip-rule="evenodd" d="M101.921 148.305C97.5946 147.994 92.8883 148.711 87.8425 150.411C85.3596 151.248 84.0251 153.939 84.8616 156.422C85.3475 157.864 86.4589 158.918 87.7918 159.385C86.8263 160.09 85.8522 160.79 84.8695 161.487L93.353 178.805C129.052 161.006 162.605 147.586 177.895 118.2C183.027 108.338 181.29 74.837 181.78 62.6495L170.505 58.0256C154.788 90.5132 133.518 121.681 101.921 148.305Z" fill="#997358"/>
<path fill-rule="evenodd" clip-rule="evenodd" d="M221.386 175.959C188.243 179.6 162.156 179.6 143.124 175.959C140.767 175.508 140.87 165.344 141.964 162.568C158.991 119.339 170.192 87.694 170.192 57.6684C173.317 59.3005 178.785 59.545 186.596 58.4022C207.59 89.3445 217.24 124.847 221.386 175.959Z" fill="#1C1C29"/>
<path fill-rule="evenodd" clip-rule="evenodd" d="M227.544 181.07C228.669 180.011 229.256 178.423 228.968 176.788L228.418 173.673C228.046 171.562 226.332 170.025 224.308 169.785C223.954 168.203 223.649 166.632 223.397 165.073C221.269 151.899 224.905 138.982 224.734 126.297C241.686 140.761 256.894 165.735 270.356 201.219L290.267 195.361C289.507 192.538 288.72 189.75 287.906 186.997C290.204 185.692 292.889 179.708 290.957 178.707C288.961 177.673 286.846 176.945 284.62 176.516C266.363 121.529 236.509 81.3149 195.056 55.8735L191.388 55.8735L183.066 55.8735C186.596 102.555 137.839 204.471 154.769 291.51C186.061 298.498 230.734 276.756 274.22 294.126C272.602 259.075 240.189 217.897 227.544 181.07V181.07Z" fill="#B58969"/>
<path fill-rule="evenodd" clip-rule="evenodd" d="M190.702 56.9277L196.141 73.6533L185.188 86.1918L195.086 96.045L171.139 137.048L200.424 96.1269L190.702 86.1918L200.424 75.1113L190.702 56.9277Z" fill="black" fill-opacity="0.1"/>
<path fill-rule="evenodd" clip-rule="evenodd" d="M178.163 152.861C180.492 152.861 182.38 150.973 182.38 148.645C182.38 146.316 180.492 144.428 178.163 144.428C175.834 144.428 173.946 146.316 173.946 148.645C173.946 150.973 175.834 152.861 178.163 152.861ZM172.892 177.108C175.22 177.108 177.108 175.22 177.108 172.892C177.108 170.563 175.22 168.675 172.892 168.675C170.563 168.675 168.675 170.563 168.675 172.892C168.675 175.22 170.563 177.108 172.892 177.108ZM171.837 201.355C174.166 201.355 176.054 199.467 176.054 197.139C176.054 194.81 174.166 192.922 171.837 192.922C169.508 192.922 167.62 194.81 167.62 197.139C167.62 199.467 169.508 201.355 171.837 201.355Z" fill="black" fill-opacity="0.4"/>
</svg>
